<svg xmlns="http://www.w3.org/2000/svg" xmlns:xlink="http://www.w3.org/1999/xlink" x="0" y="0" version="1.1" viewBox="45 89 1036 186.6" xml:space="preserve"><style type="text/css">.star,.text{fill:#e8c385}[theme=light] .text{fill:#323845}</style><g class="star"><path d="m205.5 246.3-.4.1.4-.1zM204.5 246.3l-.5-.2.5.2zM205 246.4l-.4-.1.4.1zM206 246.1l-.4.2.4-.2zM79.1 246.1l-.5.2.5-.2zM78 246.4l-.4-.1.4.1zM77.5 246.3a.8.8 0 0 1-.4-.2l.4.2zM78.5 246.3l-.4.1.4-.1zM206.4 245.8l-.3.3.3-.3zM206.7 245.5l-.3.4.3-.4zM207 245zM207 117.9l-.2.5.2-.5zM207 244.5l-.1.4.1-.4zM76.3 245.4l-.2-.4.2.4zM76 117.3l.1-.4-.1.4zM76.1 117.8v-.5.5zM77.1 115.6l.4-.2-.4.2zM76.7 116l.3-.3-.3.3zM76.4 116.3l.3-.3-.3.3zM76.1 116.8l.2-.4-.2.4zM76.6 245.8l-.3-.4.3.4zM207 244l.1.5-.1-.5zM76.1 244.9l-.1-.4.1.4zM76 244.4v-.5.5zM205.1 115.4l.4.1-.4-.1zM206.1 115.7l.3.3-.3-.3zM206.4 116l.3.3-.3-.3zM77.6 115.4l.4-.1-.4.1zM207 116.9l.1.4-.1-.4zM206.8 116.4l.2.4a.8.8 0 0 1-.2-.4zM78.1 115.4l.4.1-.4-.1zM77 246.1l-.3-.3.3.3zM204.6 115.4l.4-.1-.4.1zM207.1 117.4l-.1.5.1-.5zM205.6 115.5zM125.4 143.4l-46.3-27.7a.8.8 0 0 0-.5-.2l.5.2 46.3 27.7zM104 197l-27.7 46.4-.2.5.2-.5L104 197zM204 115.7l-46.3 27.7 46.3-27.7zM76.3 118.4l-.2-.5.2.5 27.7 46.3-27.7-46.3zM206.8 243.4l.2.5-.2-.5z"/><path d="M207 116.8c0 .1 0 0 0 0zM206.4 116zM207 117.8zM206.7 116.3zM207 117.3c0 .1 0 0 0 0zM77.1 246.1zM77.6 246.3zM206.1 246.1zM206.4 245.8zM206.8 245.4s-.1 0 0 0c-.1 0 0 0 0 0zM205.6 246.3zM179.1 164.8l27.7-46.4zM78 246.4zM78.6 246.3h-.1.1zM204.6 246.3h-.1.1zM76.1 117.9zM76.1 244v-.1.1zM76 117.4zM76.1 116.9s0-.1 0 0c0-.1 0 0 0 0zM76.4 245.5c0-.1 0-.1 0 0 0-.1 0-.1 0 0zM76 244.5zM206 115.6zM76.7 245.8zM76.1 245zM76.3 116.4s0-.1 0 0c0-.1 0 0 0 0zM205 115.4zM204.5 115.5h.1-.1zM78.5 115.4h.1-.1zM205.5 115.4zM77 115.7zM76.6 116zM78 115.4zM77.5 115.5zM205 246.4zM207 244.9s0 .1 0 0c0 .1 0 0 0 0zM207 243.9v.1-.1zM207.1 244.4s0 .1 0 0c0 .1 0 0 0 0zM104 164.8l6.1-1.5-19.4-32.5-5.6-5.6a.5.5 0 0 1 0-.7c.2-.2.5-.2.7 0l5.6 5.6 32.5 19.4 1.5-6.1-46.3-27.7a.8.8 0 0 0-.5-.2h-.1l-.4-.1-.4.1h-.1l-.4.2h-.1l-.3.3-.3.3v.1l-.2.4v.1l-.1.4v.7l.2.5 27.6 46.3zM157.7 143.4l1.5 6.1 32.5-19.4 4.5-4.6c.2-.2.5-.2.7 0 .2.2.2.5 0 .7l-4.6 4.5-19.3 32.5 6.1 1.5 27.7-46.3.2-.5v-.1l.1-.5v-.1l-.1-.4v-.1l-.2-.4-.1-.1-.3-.3-.3-.3h-.1l-.4-.2h-.1l-.4-.1-.4.1h-.1l-.5.2-46.4 27.8zM192.4 231.1l5.6 5.6c.2.2.2.5 0 .7l-.4.1-.4-.1-5.6-5.6-32.5-19.4-1.5 6.1 46.3 27.7.5.2h.1l.4.1h.1l.4-.1h.1l.4-.2h.1l.3-.3.3-.4.1-.1.2-.4v-.1l.1-.4v-.7l-.2-.5-27.7-46.3-6.1 1.6 19.4 32.5zM91.4 231.8l-4.5 4.5-.3.1-.4-.1a.5.5 0 0 1 0-.7l4.6-4.5 19.4-32.5-6.2-1.6-27.7 46.4-.2.5v.7l.1.4v.1l.2.4v.1l.3.4.3.3h.1l.4.2h.1l.4.1.4-.1h.1l.5-.2 46.3-27.7-1.5-6.1-32.4 19.3z"/><path d="m121.1 160.4.1-.5L91.4 130l-1.8-1 1.1 1.7 29.8 29.9zM162 201.3l-.2.6 29.9 29.9 1.8 1-1.1-1.7-29.8-29.9z"/><path d="m91.4 130-5.6-5.6a.5.5 0 0 0-.7 0c-.2.2-.2.5 0 .7l5.6 5.6-1-1.8 1.7 1.1zM191.7 231.8l5.6 5.6.4.1.4-.1c.2-.2.2-.5 0-.7l-5.6-5.6 1.1 1.8-1.9-1.1zM121.1 201.3l-.6-.1-29.8 29.9-1.1 1.7 1.8-1 29.8-29.9zM162 160.4l.6.2 29.8-29.9 1.1-1.7-1.8 1-29.9 29.9z"/><path d="m192.4 130.7 4.6-4.6c.2-.2.2-.5 0-.7a.5.5 0 0 0-.7 0l-4.5 4.5 1.8-1-1.2 1.8zM90.7 231.1l-4.6 4.5c-.2.2-.2.5 0 .7l.4.1.3-.1 4.5-4.5-1.8 1 1.2-1.7z"/><path d="M143.3 275.5c-.1.4-.3.8-.7 1 .3-.2.6-.6.7-1zM139.8 86.3c.2-.8.9-1.4 1.7-1.3-.8-.1-1.5.5-1.7 1.3l-14.4 57.1 14.4-57.1zM140.5 276.5c-.3-.2-.6-.6-.7-1 .1.4.3.8.7 1zM143.3 86.3l14.4 57.1-14.4-57.1c-.1-.6-.6-1.1-1.2-1.3.6.2 1 .7 1.2 1.3zM121.2 159.9l2.7-10.5zM121.2 159.9l-.1.5.1-.5zM161.8 159.9l.2.5z"/><path d="M142.6 276.5a2 2 0 0 1-1.1.3c.4.1.8-.1 1.1-.3zM179.1 197l57.1-14.4.6-.3-.6.3-57.1 14.4zM141.5 276.9a2 2 0 0 1-1.1-.3l1.1.3zM236.1 179.2l.6.3c-.1-.2-.3-.3-.6-.3L179 164.8l57.1 14.4z"/><path d="M236.7 182.4c.5-.3.8-.9.8-1.5 0 .6-.3 1.1-.8 1.5zM237.5 180.9zM162.5 201.2l10.5-2.6zM162.6 201.2l-.6.1zM162.6 160.6l-.6-.2.6.2zM139.8 86.3l-14.4 57.1 5.4 3.2 10.2-40.7V103c0-.3.2-.5.5-.5s.5.2.5.5v2.9l10.2 40.6 5.4-3.2-14.4-57.1c-.1-.6-.6-1.1-1.2-1.3l-.6-.1a2 2 0 0 0-1.6 1.5z"/><path d="M237.5 180.9c0-.6-.3-1.1-.8-1.5l-.6-.3-57.1-14.4-3.2 5.4 40.6 10.2h4.4c.3 0 .5.2.5.5s-.2.5-.5.5h-4.4l-40.6 10.2 3.2 5.4 57.1-14.4.6-.3c.5-.2.8-.7.8-1.3zM66.6 181.4h-4.4c-.3 0-.5-.2-.5-.5s.2-.5.5-.5h4.4l40.6-10.2-3.2-5.4-57.1 14.4c-1 .2-1.5 1.2-1.3 2.2.2.6.7 1.1 1.3 1.3L104 197l3.2-5.4-40.6-10.2zM142 255.9v2.9c0 .3-.2.5-.5.5s-.5-.2-.5-.5v-2.9l-10.2-40.6-5.4 3.2 14.4 57.1c.1.4.3.8.7 1 .3.2.7.3 1.1.3a2 2 0 0 0 1.1-.3c.3-.2.6-.6.7-1l14.4-57.1-5.4-3.2-10.4 40.6zM160.5 195.5l-2.9.7 5 5 10.4-2.6-3.2-5.4zM156.9 197l-.7 2.9-2.4 9.2 5.4 3.3 2.6-10.5zM125.5 196.2l-2.9-.7-9.3-2.3-3.2 5.4 10.4 2.6zM156.9 164.8l4.9-4.9-2.6-10.5-5.4 3.2 2.4 9.3zM151.9 145h6.2zM160.5 166.3l9.3 2.3 3.2-5.4-10.4-2.6-5 4.9zM126.9 161.9l2.4-9.3-5.4-3.2-2.7 10.5 5 4.9zM122.6 166.3l2.9-.8-5-4.9-10.4 2.6 3.2 5.4zM126.2 197l-5 4.9 2.7 10.5 5.4-3.3-2.4-9.2z"/><path d="m153.8 209.1-1.5 6.1 5.4 3.2 1.5-6zM153.8 152.6l5.4-3.2-1.5-6-5.4 3.2zM129.3 152.6l1.5-6-5.4-3.2-1.5 6zM173 198.6l6.1-1.6-3.2-5.4-6.1 1.6zM110.1 163.2l-6.1 1.6 3.2 5.3 6.1-1.5zM129.3 209.1l-5.4 3.3 1.5 6 5.4-3.2zM107.2 191.6 104 197l6.1 1.6 3.2-5.4zM169.8 168.6l6.1 1.5 3.2-5.3-6.1-1.6zM126.2 164.8l-5-4.9-.1.5-.6.2 5 4.9.5-.1zM156.9 197l4.9 4.9.2-.6.6-.1-5-5-.6.2zM125.5 196.2l-5 5 .6.1.1.6 5-4.9-.2-.6zM157 165.4l.6.1 5-4.9-.6-.2-.2-.5-4.9 4.9zM113.6 180.9l-.3-.5H66.6l-2 .5 2 .5h46.7zM169.4 180.9l.4.5h46.7l2-.5-2-.5h-46.7z"/><path d="m113.3 180.4.3.5-.3.5.3-.5zM140.8 180.9l-.5-.5h-20l.3.5-.3.5h20zM162.8 180.4h-20l-.6.5.6.5h20l-.3-.5zM169.8 180.4l-.4.5z"/><path d="m162.5 180.9.3.5h7l-.4-.5.4-.5h-7zM120.3 180.4h-7l.3.5-.3.5h7l.3-.5zM142 181.4h.8l-.6-.5-.2.2zM141 180.4h-.7l.5.5.2-.2zM140.8 180.9l-.5.5h.7v-.3zM142 180.7l.2.2.6-.5h-.8z"/><path d="m141 180.7-.2.2.2.2zM142 181.1l.2-.2-.2-.2zM216.5 181.4h4.4c.3 0 .5-.2.5-.5s-.2-.5-.5-.5h-4.4l2 .5-2 .5zM66.6 180.4h-4.4c-.3 0-.5.2-.5.5s.2.5.5.5h4.4l-2-.5 2-.5zM141.5 208.8l-.5.3v46.8l.5 2 .5-2v-46.8zM141.5 153l.5-.3v-46.8l-.5-2-.5 2v46.8zM141 182.1v20l.5-.3.5.3v-20l-.5-.5zM142 152.7l-.5.3.5-.3zM142 179.7v-20l-.5.3-.5-.3v20l.5.5zM141 152.7l.5.3z"/><path d="M141 202.1v7l.5-.3.5.3v-7l-.5-.3zM141.5 160l.5-.3v-7l-.5.3-.5-.3v7zM141.8 181.4l-.3.2.5.5v-.7zM141.5 180.2l-.5-.5v.7h.3zM141.8 180.4h.2v-.7l-.5.5zM141.3 181.4h-.3v.7l.5-.5z"/><path d="m141.5 181.6.3-.2h-.5zM141.3 180.4h.5l-.3-.2zM141 255.9v2.9c0 .3.2.5.5.5s.5-.2.5-.5v-2.9l-.5 2-.5-2zM142 105.9V103c0-.3-.2-.5-.5-.5s-.5.2-.5.5v2.9l.5-2 .5 2zM141.8 181.4h.2v-.3zM141.3 180.4h-.3v.3zM141 181.4h.3l-.3-.3zM142 180.7v-.3h-.2z"/><path d="m142 180.7-.2-.3h-.5l-.3.3v.4l.3.3h.5l.2-.3z"/></g><g class="text"><path d="M303.8,135.6h17l36,84.6h-19.3l-7.7-18.8h-35.5l-7.7,18.8h-18.8L303.8,135.6z M323.3,185l-11.2-27.2L300.9,185 H323.3z"/><path d="M361.8,188.4v-0.2c0-18.5,14.9-33.5,34.9-33.5c19.9,0,34.7,14.8,34.7,33.2v0.2c0,18.5-14.9,33.5-34.9,33.5 C376.5,221.6,361.8,206.9,361.8,188.4z M413.4,188.4v-0.2c0-9.5-6.8-17.8-16.9-17.8c-10.4,0-16.7,8-16.7,17.5v0.2 c0,9.5,6.8,17.8,16.9,17.8C407.1,205.9,413.4,197.9,413.4,188.4z"/><path d="M440,207.3l33.2-36.7h-32.2v-14.8h54.8v12.8l-33.4,36.7h33.4v14.8H440V207.3z"/><path d="M505.9,201.7v-0.2c0-14,10.7-20.5,25.9-20.5c6.5,0,11.2,1.1,15.7,2.6v-1.1c0-7.6-4.7-11.8-13.8-11.8 c-7,0-11.9,1.3-17.8,3.5l-4.6-13.9c7.1-3.1,14-5.2,25-5.2c10,0,17.2,2.6,21.7,7.2c4.8,4.8,7,11.9,7,20.5v37.3h-17.6v-7 c-4.4,4.9-10.6,8.2-19.4,8.2C515.9,221.4,505.9,214.4,505.9,201.7z M547.8,197.5v-3.2c-3.1-1.4-7.2-2.4-11.6-2.4 c-7.8,0-12.6,3.1-12.6,8.9v0.2c0,4.9,4.1,7.8,10,7.8C542,208.8,547.8,204.1,547.8,197.5z"/><path d="M580.8,132.6H599v46.7l21.4-23.4h21.8l-24.5,25.3l25.3,39h-20.9l-16.8-26.3l-6.4,6.7v19.6h-18.2V132.6z"/><path d="M652.2,132.6h19.2v16.2h-19.2V132.6z M652.7,155.9h18.2v64.3h-18.2V155.9z"/><path d="M683.6,167.3c8.3-0.8,12.4-5,11.8-11.9h-7.4v-19.2h19.4v16.2c0,15.8-7.9,22.2-22.2,22.4L683.6,167.3z"/><path d="M715.5,211.7l7.8-12c7,5,14.3,7.7,20.3,7.7c5.3,0,7.7-1.9,7.7-4.8v-0.2c0-4-6.2-5.3-13.3-7.4 c-9-2.6-19.2-6.8-19.2-19.3v-0.2c0-13.1,10.6-20.4,23.5-20.4c8.2,0,17,2.8,24,7.4l-7,12.6c-6.4-3.7-12.7-6-17.4-6 c-4.4,0-6.7,1.9-6.7,4.4v0.2c0,3.6,6.1,5.3,13.1,7.7c9,3,19.4,7.3,19.4,19.1v0.2c0,14.3-10.7,20.8-24.6,20.8 C734.1,221.4,724.1,218.4,715.5,211.7z"/><path d="M835.1,211.8v8.4h-18.2v-87.6h18.2v32.5c4.4-6,10.6-10.4,20-10.4c15,0,29.3,11.8,29.3,33.2v0.2 c0,21.5-14,33.2-29.3,33.2C845.4,221.4,839.4,216.9,835.1,211.8z M866.1,188.1v-0.2c0-10.7-7.2-17.8-15.7-17.8s-15.6,7.1-15.6,17.8 v0.2c0,10.7,7.1,17.8,15.6,17.8S866.1,198.9,866.1,188.1z"/><path d="M898.7,132.6h18.2v87.6h-18.2V132.6z"/><path d="M930.9,188.4v-0.2c0-18.5,14.9-33.5,34.9-33.5c19.9,0,34.7,14.8,34.7,33.2v0.2c0,18.5-14.9,33.5-34.9,33.5 C945.7,221.6,930.9,206.9,930.9,188.4z M982.5,188.4v-0.2c0-9.5-6.8-17.8-16.9-17.8c-10.4,0-16.7,8-16.7,17.5v0.2 c0,9.5,6.8,17.8,16.9,17.8C976.3,205.9,982.5,197.9,982.5,188.4z"/><path d="M1014.1,232.9l6.2-13.7c6.6,3.7,13.2,5.9,21.7,5.9c12.5,0,18.4-6,18.4-17.5v-3.1c-5.4,6.5-11.3,10.4-21,10.4 c-15,0-28.6-10.9-28.6-30v-0.2c0-19.2,13.8-30,28.6-30c10,0,15.8,4.2,20.8,9.6v-8.4h18.2v49.8c0,11.5-2.8,19.9-8.2,25.3 c-6,6-15.2,8.6-27.7,8.6C1032.1,239.6,1022.3,237.2,1014.1,232.9z M1060.4,184.9v-0.2c0-8.8-6.8-14.9-15.7-14.9 s-15.6,6.1-15.6,14.9v0.2c0,8.9,6.7,14.9,15.6,14.9S1060.4,193.7,1060.4,184.9z"/></g></svg>