<svg xmlns="http://www.w3.org/2000/svg" xmlns:xlink="http://www.w3.org/1999/xlink" viewBox="45 89 1036 186.6" xml:space="preserve"><style type="text/css">.st0{fill:#fff}.st1{fill:#e8c385}.st2{fill:none;stroke:#e8c385;stroke-linecap:round;stroke-miterlimit:10}.st3{enable-background:new}.st4{fill:#323845}</style><polygon points="117.1 185 80.9 124.4 141.5 160.6 202.1 124.4 165.9 185 202.1 245.6 141.5 209.4 80.9 245.6" class="st0"/><path d="M89.6,133.1l48.8,29.2l3.1,1.8l3.1-1.8l48.9-29.2l-29.2,48.8l-1.8,3.1l1.8,3.1l29.2,48.9l-48.9-29.2l-3.1-1.8	l-3.1,1.8l-48.8,29.2l29.2-48.9l1.8-3.1l-1.8-3.1L89.6,133.1 M205,119.5c-0.4,0-0.7,0.1-1,0.3l-62.5,37.3l-62.5-37.3	c-0.3-0.2-0.6-0.3-1-0.3c-1.1,0-2,0.9-2,2c0,0.3,0.1,0.7,0.3,1l37.3,62.5l-37.3,62.5c-0.6,1-0.2,2.2,0.7,2.7c0.3,0.2,0.6,0.3,1,0.3	c0.4,0,0.7-0.1,1-0.3l62.5-37.3l62.5,37.3c0.3,0.2,0.6,0.3,1,0.3c1.1,0,2-0.9,2-2c0-0.3-0.1-0.7-0.3-1L169.4,185l37.3-62.5	c0.6-1,0.2-2.2-0.7-2.7C205.7,119.6,205.4,119.5,205,119.5L205,119.5z" class="st1"/><line x1="85.4" x2="197.7" y1="128.9" y2="241.1" class="st2"/><line x1="86.5" x2="196.6" y1="240.1" y2="129.9" class="st2"/><polygon points="123.6 203 52.3 185 123.6 167 141.5 95.8 159.5 167 230.8 185 159.5 203 141.5 274.2" class="st0"/><path d="M141.5,108.1l14.6,58l0.9,3.5l3.5,0.9l58,14.6l-58,14.6l-3.5,0.9l-0.9,3.5l-14.6,58l-14.6-58l-0.9-3.5l-3.5-0.9	L64.6,185l58-14.6l3.5-0.9l0.9-3.5L141.5,108.1 M141.6,89c-0.8,0-1.5,0.5-1.7,1.3l-18.7,74.2l-74.2,18.7c-1,0.2-1.5,1.2-1.3,2.2	c0.2,0.6,0.7,1.1,1.3,1.3l74.2,18.7l18.7,74.2c0.2,0.8,0.9,1.4,1.7,1.4c0.8,0,1.5-0.5,1.7-1.4l18.7-74.2l74.2-18.7	c1-0.2,1.5-1.2,1.3-2.2c-0.2-0.6-0.7-1.1-1.3-1.3L162,164.6l-18.7-74.2C143.1,89.6,142.4,89,141.6,89L141.6,89z" class="st1"/><line x1="62.2" x2="220.9" y1="185" y2="185" class="st2"/><line x1="141.5" x2="141.5" y1="262.9" y2="107.1" class="st2"/><g class="st3"><path d="M303.8,140h17l36,84.6h-19.3l-7.7-18.8h-35.5l-7.7,18.8h-18.8L303.8,140z M323.3,189.4l-11.2-27.2l-11.2,27.2 H323.3z" class="st4"/></g><g class="st3"><path d="M361.8,192.8v-0.2c0-18.5,14.9-33.5,34.9-33.5c19.9,0,34.7,14.8,34.7,33.2v0.2c0,18.5-14.9,33.5-34.9,33.5 C376.5,226,361.8,211.3,361.8,192.8z M413.4,192.8v-0.2c0-9.5-6.8-17.8-16.9-17.8c-10.4,0-16.7,8-16.7,17.5v0.2 c0,9.5,6.8,17.8,16.9,17.8C407.1,210.3,413.4,202.3,413.4,192.8z" class="st4"/></g><g class="st3"><path d="M440,211.8l33.2-36.7h-32.2v-14.8h54.8v12.8l-33.4,36.7h33.4v14.8H440V211.8z" class="st4"/><path d="M505.9,206.1v-0.2c0-14,10.7-20.5,25.9-20.5c6.5,0,11.2,1.1,15.7,2.6v-1.1c0-7.6-4.7-11.8-13.8-11.8 c-7,0-11.9,1.3-17.8,3.5l-4.6-13.9c7.1-3.1,14-5.2,25-5.2c10,0,17.2,2.6,21.7,7.2c4.8,4.8,7,11.9,7,20.5v37.3h-17.6v-7 c-4.4,4.9-10.6,8.2-19.4,8.2C515.9,225.8,505.9,218.8,505.9,206.1z M547.8,201.9v-3.2c-3.1-1.4-7.2-2.4-11.6-2.4 c-7.8,0-12.6,3.1-12.6,8.9v0.2c0,4.9,4.1,7.8,10,7.8C542,213.2,547.8,208.5,547.8,201.9z" class="st4"/><path d="M580.8,137H599v46.7l21.4-23.4h21.8l-24.5,25.3l25.3,39h-20.9l-16.8-26.3L599,205v19.6h-18.2V137z" class="st4"/><path d="M652.2,137h19.2v16.2h-19.2V137z M652.7,160.3h18.2v64.3h-18.2V160.3z" class="st4"/></g><g class="st3"><path d="M683.6,171.7c8.3-0.8,12.4-5,11.8-11.9h-7.4v-19.2h19.4v16.2c0,15.8-7.9,22.2-22.2,22.4L683.6,171.7z" class="st4"/></g><g class="st3"><path d="M715.5,216.1l7.8-12c7,5,14.3,7.7,20.3,7.7c5.3,0,7.7-1.9,7.7-4.8v-0.2c0-4-6.2-5.3-13.3-7.4 c-9-2.6-19.2-6.8-19.2-19.3v-0.2c0-13.1,10.6-20.4,23.5-20.4c8.2,0,17,2.8,24,7.4l-7,12.6c-6.4-3.7-12.7-6-17.4-6 c-4.4,0-6.7,1.9-6.7,4.4v0.2c0,3.6,6.1,5.3,13.1,7.7c9,3,19.4,7.3,19.4,19.1v0.2c0,14.3-10.7,20.8-24.6,20.8 C734.1,225.8,724.1,222.8,715.5,216.1z" class="st4"/><path d="M835.1,216.2v8.4h-18.2V137h18.2v32.5c4.4-6,10.6-10.4,20-10.4c15,0,29.3,11.8,29.3,33.2v0.2 c0,21.5-14,33.2-29.3,33.2C845.4,225.8,839.4,221.4,835.1,216.2z M866.1,192.6v-0.2c0-10.7-7.2-17.8-15.7-17.8s-15.6,7.1-15.6,17.8 v0.2c0,10.7,7.1,17.8,15.6,17.8S866.1,203.4,866.1,192.6z" class="st4"/><path d="M898.7,137h18.2v87.6h-18.2V137z" class="st4"/><path d="M930.9,192.8v-0.2c0-18.5,14.9-33.5,34.9-33.5c19.9,0,34.7,14.8,34.7,33.2v0.2c0,18.5-14.9,33.5-34.9,33.5 C945.7,226,930.9,211.3,930.9,192.8z M982.5,192.8v-0.2c0-9.5-6.8-17.8-16.9-17.8c-10.4,0-16.7,8-16.7,17.5v0.2 c0,9.5,6.8,17.8,16.9,17.8C976.3,210.3,982.5,202.3,982.5,192.8z" class="st4"/><path d="M1014.1,237.3l6.2-13.7c6.6,3.7,13.2,5.9,21.7,5.9c12.5,0,18.4-6,18.4-17.5v-3.1c-5.4,6.5-11.3,10.4-21,10.4 c-15,0-28.6-10.9-28.6-30v-0.2c0-19.2,13.8-30,28.6-30c10,0,15.8,4.2,20.8,9.6v-8.4h18.2v49.8c0,11.5-2.8,19.9-8.2,25.3 c-6,6-15.2,8.6-27.7,8.6C1032.1,244,1022.3,241.6,1014.1,237.3z M1060.4,189.3v-0.2c0-8.8-6.8-14.9-15.7-14.9s-15.6,6.1-15.6,14.9 v0.2c0,8.9,6.7,14.9,15.6,14.9S1060.4,198.1,1060.4,189.3z" class="st4"/></g></svg>